<svg xmlns="http://www.w3.org/2000/svg" version="1.1" xmlns:xlink="http://www.w3.org/1999/xlink" xmlns:svgjs="http://svgjs.dev/svgjs" width="2000" height="2150" viewBox="0 0 2000 2150"><g transform="matrix(1,0,0,1,-2.5226573924328477,-2.6171953959856182)"><svg viewBox="0 0 305 328" data-background-color="#fffff5" preserveAspectRatio="xMidYMid meet" height="2150" width="2000" xmlns="http://www.w3.org/2000/svg" xmlns:xlink="http://www.w3.org/1999/xlink"><g id="tight-bounds" transform="matrix(1,0,0,1,0.3847052523460093,0.4006971540092934)"><svg viewBox="0 0 304.230589495308 327.2" height="327.2" width="304.230589495308"><g><svg viewBox="0 0 304.230589495308 327.2" height="327.2" width="304.230589495308"><g><svg viewBox="0 0 304.230589495308 327.2" height="327.2" width="304.230589495308"><g id="textblocktransform"><svg viewBox="0 0 304.230589495308 327.2" height="327.2" width="304.230589495308" id="textblock"><g><svg viewBox="0 0 304.230589495308 327.2" height="327.2" width="304.230589495308"><g transform="matrix(1,0,0,1,0,0)"><svg width="304.230589495308" viewBox="3.825190610057561 -21.117925550742918 19.528656056258143 21.00307896898492" height="327.2" data-palette-color="#091627"><path d="M6.533-18.278v0l-0.697 0.184c-0.516 0.159-0.815 0.387-0.898 0.685v0c-0.021 0.069-0.059 0.113-0.116 0.13v0c-0.248 0.077-0.504-0.312-0.768-1.166-0.263-0.854-0.299-1.435-0.109-1.745 0.191-0.31 0.604-0.563 1.242-0.76 0.643-0.198 1.114-0.221 1.412-0.069 0.296 0.146 0.524 0.477 0.683 0.993 0.159 0.516 0.184 0.903 0.075 1.16-0.109 0.257-0.384 0.453-0.824 0.588zM8.702-3.061v0l-1.75-6.797c-0.489-1.586-1.003-2.61-1.543-3.071v0c-0.174-0.156-0.352-0.258-0.534-0.307v0c-0.126-0.003-0.208-0.065-0.246-0.186v0c-0.106-0.344 0.278-0.829 1.153-1.454 0.881-0.627 1.544-1.01 1.991-1.147 0.452-0.139 0.723-0.097 0.813 0.126v0c0.118 0.382 0.402 1.484 0.851 3.306 0.445 1.83 0.972 3.729 1.579 5.698 0.609 1.975 1.101 3.166 1.478 3.573v0c0.087 0.078 0.145 0.165 0.174 0.26v0c0.077 0.248-0.248 0.485-0.974 0.709-0.726 0.224-1.534 0.263-2.423 0.119v0c-0.221-0.037-0.41-0.313-0.569-0.829zM16.248-13.165v0l0.738-0.963c0.115-0.14 0.282-0.138 0.499 0.004v0l0.879 0.576 1.215-2.074 0.065-0.1c0.252-0.385 0.791-0.562 1.616-0.532 0.816 0.032 1.466 0.207 1.951 0.526v0c0.151 0.099 0.182 0.215 0.094 0.348v0l-0.016 0.026c-0.363 0.408-1.193 1.529-2.492 3.364v0c0.736 0.482 1.215 0.772 1.438 0.871 0.223 0.098 0.342 0.153 0.36 0.163v0c0.123 0.08 0.118 0.221-0.014 0.422-0.132 0.201-0.394 0.395-0.788 0.583-0.389 0.192-0.697 0.225-0.926 0.099v0l-1.054-0.69c-0.389 0.558-1.026 1.511-1.91 2.861-0.884 1.349-1.597 2.468-2.14 3.356-0.548 0.885-0.951 1.561-1.209 2.029-0.259 0.468-0.454 0.85-0.585 1.147-0.136 0.293-0.229 0.508-0.278 0.643-0.054 0.132-0.093 0.214-0.114 0.248v0c-0.11 0.167-0.279 0.188-0.507 0.062v0c-0.652-0.427-1.242-0.945-1.768-1.553-0.526-0.608-0.641-1.138-0.346-1.589v0c2.196-2.586 4.354-5.496 6.474-8.73v0c-0.452-0.296-0.806-0.504-1.062-0.624v0l-0.025-0.017c-0.151-0.099-0.182-0.251-0.095-0.456z" opacity="1" transform="matrix(1,0,0,1,0,0)" fill="#091627" class="wordmark-text-0" data-fill-palette-color="primary" id="text-0"></path></svg></g></svg></g></svg></g></svg></g><g></g></svg></g><defs></defs></svg><rect width="304.230589495308" height="327.2" fill="none" stroke="none" visibility="hidden"></rect></g></svg></g></svg>